<?xml version="1.0" encoding="UTF-8" standalone="no"?>
<!-- Created with Inkscape (http://www.inkscape.org/) -->

<svg
   width="210mm"
   height="297mm"
   viewBox="0 0 210 297"
   version="1.1"
   id="svg1"
   inkscape:version="1.3 (0e150ed6c4, 2023-07-21)"
   sodipodi:docname="Logos.svg"
   xml:space="preserve"
   inkscape:export-filename="Logos.svg"
   inkscape:export-xdpi="96"
   inkscape:export-ydpi="96"
   xmlns:inkscape="http://www.inkscape.org/namespaces/inkscape"
   xmlns:sodipodi="http://sodipodi.sourceforge.net/DTD/sodipodi-0.dtd"
   xmlns:xlink="http://www.w3.org/1999/xlink"
   xmlns="http://www.w3.org/2000/svg"
   xmlns:svg="http://www.w3.org/2000/svg"><sodipodi:namedview
     id="namedview1"
     pagecolor="#ffffff"
     bordercolor="#000000"
     borderopacity="0.25"
     inkscape:showpageshadow="2"
     inkscape:pageopacity="0.0"
     inkscape:pagecheckerboard="0"
     inkscape:deskcolor="#d1d1d1"
     inkscape:document-units="mm"
     inkscape:zoom="0.35355339"
     inkscape:cx="705.69256"
     inkscape:cy="722.66313"
     inkscape:window-width="1920"
     inkscape:window-height="991"
     inkscape:window-x="-9"
     inkscape:window-y="-9"
     inkscape:window-maximized="1"
     inkscape:current-layer="layer1"
     showguides="true" /><defs
     id="defs1"><linearGradient
       id="linearGradient158"
       inkscape:collect="always"><stop
         style="stop-color:#81acd9;stop-opacity:1"
         offset="0"
         id="stop159" /><stop
         style="stop-color:#1f6ca9;stop-opacity:1"
         offset="0.38042423"
         id="stop161" /><stop
         style="stop-color:#024785;stop-opacity:1"
         offset="0.73164833"
         id="stop162" /><stop
         style="stop-color:#022559;stop-opacity:1"
         offset="1"
         id="stop160" /></linearGradient><linearGradient
       id="linearGradient155"
       inkscape:collect="always"><stop
         style="stop-color:#fdfdfd;stop-opacity:1"
         offset="0"
         id="stop155" /><stop
         style="stop-color:#f9f9f9;stop-opacity:1"
         offset="0.28183964"
         id="stop157" /><stop
         style="stop-color:#b2acaf;stop-opacity:1"
         offset="0.6409198"
         id="stop158" /><stop
         style="stop-color:#6d6b67;stop-opacity:1"
         offset="1"
         id="stop156" /></linearGradient><linearGradient
       id="linearGradient134"
       inkscape:collect="always"><stop
         style="stop-color:#434953;stop-opacity:1"
         offset="0"
         id="stop134" /><stop
         style="stop-color:#ebebec;stop-opacity:1"
         offset="1"
         id="stop135" /></linearGradient><rect
       x="222.48138"
       y="303.3837"
       width="236.92822"
       height="86.681057"
       id="rect3" /><rect
       x="208.03454"
       y="299.04965"
       width="258.59849"
       height="95.349162"
       id="rect2" /><radialGradient
       inkscape:collect="always"
       xlink:href="#linearGradient134"
       id="radialGradient135"
       cx="86.003334"
       cy="184.83562"
       fx="86.003334"
       fy="184.83562"
       r="38.89572"
       gradientTransform="matrix(1.1459278,1.2647072,-0.74104909,0.67145085,120.21735,-33.898627)"
       gradientUnits="userSpaceOnUse" /><radialGradient
       inkscape:collect="always"
       xlink:href="#linearGradient155"
       id="radialGradient157"
       cx="87.192207"
       cy="187.21198"
       fx="87.192207"
       fy="187.21198"
       r="50.002373"
       gradientTransform="matrix(0.74594504,1.5675732,-0.90298109,0.42969239,191.20049,-29.911937)"
       gradientUnits="userSpaceOnUse" /><radialGradient
       inkscape:collect="always"
       xlink:href="#linearGradient158"
       id="radialGradient160"
       cx="91.306099"
       cy="197.44682"
       fx="91.306099"
       fy="197.44682"
       r="48.5444"
       gradientUnits="userSpaceOnUse"
       gradientTransform="matrix(1.0314959,1.2440941,-0.76981631,0.63826549,143.43753,-41.08772)" /><radialGradient
       inkscape:collect="always"
       xlink:href="#linearGradient155"
       id="radialGradient162"
       gradientUnits="userSpaceOnUse"
       gradientTransform="matrix(0.74594504,1.5675732,-0.90298109,0.42969239,191.20049,-29.911937)"
       cx="87.192207"
       cy="187.21198"
       fx="87.192207"
       fy="187.21198"
       r="50.002373" /><radialGradient
       inkscape:collect="always"
       xlink:href="#linearGradient155"
       id="radialGradient163"
       gradientUnits="userSpaceOnUse"
       gradientTransform="matrix(0.74594504,1.5675732,-0.90298109,0.42969239,191.20049,-29.911937)"
       cx="87.192207"
       cy="187.21198"
       fx="87.192207"
       fy="187.21198"
       r="50.002373" /></defs><g
     inkscape:label="BurgerKing"
     inkscape:groupmode="layer"
     id="layer1"><text
       xml:space="preserve"
       transform="scale(0.26458333)"
       id="text2"
       style="fill:#ea9125;stroke-width:1.13385827;stroke:#000000;stroke-opacity:0.06888361;-inkscape-font-specification:Arial;font-family:Arial;font-size:26.66666667px;fill-opacity:1;white-space:pre;shape-inside:url(#rect2)" /><g
       id="g4"
       transform="translate(8.9802561,51.636472)"><path
         id="rect1"
         style="fill:#ea9125;fill-opacity:1;stroke:#000000;stroke-width:0.3;stroke-opacity:0.0688836"
         d="m 43.025153,9.424948 c -26.04861,0.053 -39.733002,17.655044 -28.142142,17.783612 19.619079,0.217619 33.433863,-0.155863 55.203146,0 12.80702,0.0917 -3.95644,-18.004955 -27.061004,-17.783612 z"
         sodipodi:nodetypes="cssc" /><path
         id="rect1-0"
         style="fill:#ea9125;fill-opacity:1;stroke:#000000;stroke-width:0.3;stroke-opacity:0.0688836"
         d="m 41.388638,81.168871 c 15.439259,-0.009 29.294999,0.61703 34.306219,-10.34054 l -67.095627,0.0395 c 5.024118,10.95166 17.350152,10.31013 32.789408,10.30104 z"
         sodipodi:nodetypes="sccs" /><text
         xml:space="preserve"
         transform="matrix(0.51208958,0,0,0.70515722,-103.58167,-191.43214)"
         id="text1"
         style="font-style:normal;font-variant:normal;font-weight:normal;font-stretch:normal;font-size:38.2544px;font-family:Insaniburger;-inkscape-font-specification:Insaniburger;white-space:pre;shape-inside:url(#rect3);fill:#ff0000;fill-opacity:1;stroke:#000000;stroke-width:1.13386;stroke-opacity:0.0688836"><tspan
           x="222.48047"
           y="337.84063"
           id="tspan1">Burger</tspan></text><text
         xml:space="preserve"
         style="font-style:normal;font-variant:normal;font-weight:normal;font-stretch:normal;font-size:31.3326px;font-family:Insaniburger;-inkscape-font-specification:Insaniburger;fill:#ff0000;fill-opacity:1;stroke:#000000;stroke-width:0.444083;stroke-opacity:0.0688836"
         x="9.8402071"
         y="68.953262"
         id="text4"
         transform="scale(0.99263227,1.0074224)"><tspan
           sodipodi:role="line"
           id="tspan4"
           style="stroke-width:0.444083"
           x="9.8402071"
           y="68.953262">king</tspan></text></g></g><g
     inkscape:groupmode="layer"
     id="layer2"
     inkscape:label="carrefour"><g
       id="g21"
       transform="matrix(0.71886023,0,0,0.71886023,79.179475,-65.143675)"><path
         d="m 60.517236,125.93547 -25.982393,26.17721 c -0.186472,0.18787 -0.361084,0.38281 -0.523999,0.58394 -0.162915,0.20114 -0.314133,0.40848 -0.453719,0.62115 -0.279173,0.42535 -0.511661,0.87205 -0.697115,1.33274 -0.185454,0.46068 -0.324206,0.93574 -0.415996,1.41748 -0.09179,0.48175 -0.136698,0.97029 -0.134875,1.45883 0.0018,0.48853 0.05035,0.97674 0.145728,1.45779 0.09538,0.48105 0.237444,0.95511 0.42633,1.41438 0.188886,0.45929 0.424595,0.9038 0.706934,1.32706 0.141169,0.21162 0.293874,0.41811 0.45837,0.61805 0.164495,0.19994 0.340781,0.39333 0.52865,0.57981 l 25.460978,25.27184 a 41.732433,55.654198 0 0 1 -0.343649,-0.61237 41.732433,55.654198 0 0 1 -2.853572,-6.9696 41.732433,55.654198 0 0 1 -2.080493,-7.43985 41.732433,55.654198 0 0 1 -1.266073,-7.75922 41.732433,55.654198 0 0 1 -0.42478,-7.92045 41.732433,55.654198 0 0 1 0.42478,-7.92044 41.732433,55.654198 0 0 1 1.266073,-7.75922 41.732433,55.654198 0 0 1 2.080493,-7.43986 41.732433,55.654198 0 0 1 2.853572,-6.9696 41.732433,55.654198 0 0 1 0.824756,-1.46967 z"
         style="fill:#ff0000;fill-opacity:1;stroke:#000000;stroke-width:0.3;stroke-opacity:0.0688836"
         id="path21" /><path
         d="m 97.283468,115.49786 a 31.484051,41.670479 0 0 0 -2.744536,0.15865 31.484051,41.670479 0 0 0 -2.722831,0.47439 31.484051,41.670479 0 0 0 -2.68149,0.78703 31.484051,41.670479 0 0 0 -2.619478,1.09295 31.484051,41.670479 0 0 0 -2.53783,1.39113 31.484051,41.670479 0 0 0 -2.436027,1.67845 31.484051,41.670479 0 0 0 -2.316654,1.95337 31.484051,41.670479 0 0 0 -2.178679,2.21279 31.484051,41.670479 0 0 0 -2.025199,2.45618 31.484051,41.670479 0 0 0 -1.855701,2.67994 31.484051,41.670479 0 0 0 -1.672249,2.88406 31.484051,41.670479 0 0 0 -1.475362,3.06596 31.484051,41.670479 0 0 0 -1.268657,3.22461 31.484051,41.670479 0 0 0 -1.050582,3.35897 31.484051,41.670479 0 0 0 -0.826306,3.46697 31.484051,41.670479 0 0 0 -0.594279,3.54914 31.484051,41.670479 0 0 0 -0.358634,3.60391 31.484051,41.670479 0 0 0 -0.119373,3.63182 31.484051,41.670479 0 0 0 0.119373,3.63182 31.484051,41.670479 0 0 0 0.358634,3.60444 31.484051,41.670479 0 0 0 0.594279,3.54913 31.484051,41.670479 0 0 0 0.826306,3.46697 31.484051,41.670479 0 0 0 1.050582,3.35846 31.484051,41.670479 0 0 0 1.268657,3.22461 31.484051,41.670479 0 0 0 1.475362,3.06596 31.484051,41.670479 0 0 0 1.672249,2.88406 31.484051,41.670479 0 0 0 1.855701,2.67994 31.484051,41.670479 0 0 0 2.025199,2.45618 31.484051,41.670479 0 0 0 2.178679,2.21278 31.484051,41.670479 0 0 0 2.316654,1.95337 31.484051,41.670479 0 0 0 2.436027,1.67845 31.484051,41.670479 0 0 0 2.53783,1.39113 31.484051,41.670479 0 0 0 2.619478,1.09296 31.484051,41.670479 0 0 0 2.68149,0.78703 31.484051,41.670479 0 0 0 2.722831,0.47439 31.484051,41.670479 0 0 0 2.744536,0.15865 31.484051,41.670479 0 0 0 2.744022,-0.15865 31.484051,41.670479 0 0 0 2.72334,-0.47439 31.484051,41.670479 0 0 0 2.68149,-0.78703 31.484051,41.670479 0 0 0 2.61948,-1.09296 31.484051,41.670479 0 0 0 2.53732,-1.39113 31.484051,41.670479 0 0 0 2.43654,-1.67845 31.484051,41.670479 0 0 0 2.31614,-1.95337 31.484051,41.670479 0 0 0 2.17919,-2.21278 31.484051,41.670479 0 0 0 0.58136,-0.76946 12.838492,12.838492 0 0 1 -0.95136,-0.1509 12.838492,12.838492 0 0 1 -1.86139,-0.77101 12.838492,12.838492 0 0 1 -1.71772,-1.05265 12.838492,12.838492 0 0 1 -1.53221,-1.30845 12.838492,12.838492 0 0 1 -1.30793,-1.53169 12.838492,12.838492 0 0 1 -1.05316,-1.71772 12.838492,12.838492 0 0 1 -0.7705,-1.86138 12.838492,12.838492 0 0 1 -0.47077,-1.95906 12.838492,12.838492 0 0 1 -0.15761,-2.00814 12.838492,12.838492 0 0 1 0.15761,-2.00867 12.838492,12.838492 0 0 1 0.47077,-1.95905 12.838492,12.838492 0 0 1 0.77101,-1.86087 12.838492,12.838492 0 0 1 1.05265,-1.71772 12.838492,12.838492 0 0 1 1.30793,-1.53221 12.838492,12.838492 0 0 1 1.53221,-1.30845 12.838492,12.838492 0 0 1 1.71772,-1.05265 12.838492,12.838492 0 0 1 1.86139,-0.77049 12.838492,12.838492 0 0 1 1.95854,-0.47026 12.838492,12.838492 0 0 1 2.00866,-0.15813 12.838492,12.838492 0 0 1 1.34204,0.0703 12.838492,12.838492 0 0 1 1.32705,0.20981 12.838492,12.838492 0 0 1 1.29811,0.3483 12.838492,12.838492 0 0 1 1.2547,0.48111 12.838492,12.838492 0 0 1 1.19734,0.61029 12.838492,12.838492 0 0 1 1.12707,0.73174 12.838492,12.838492 0 0 1 1.04438,0.84595 12.838492,12.838492 0 0 1 0.94981,0.95033 12.838492,12.838492 0 0 1 0.84594,1.04438 12.838492,12.838492 0 0 1 0.73174,1.12706 12.838492,12.838492 0 0 1 0.6103,1.19734 12.838492,12.838492 0 0 1 0.48163,1.25419 12.838492,12.838492 0 0 1 0.34778,1.29811 12.838492,12.838492 0 0 1 0.21032,1.32757 12.838492,12.838492 0 0 1 0.006,0.0636 12.838492,12.838492 0 0 1 0.006,0.0641 12.838492,12.838492 0 0 1 0.006,0.0636 12.838492,12.838492 0 0 1 0.005,0.0636 12.838492,12.838492 0 0 1 0.006,0.0641 12.838492,12.838492 0 0 1 0.005,0.0636 12.838492,12.838492 0 0 1 0.005,0.0641 12.838492,12.838492 0 0 1 0.004,0.0641 12.838492,12.838492 0 0 1 0.004,0.0636 12.838492,12.838492 0 0 1 0.004,0.0641 12.838492,12.838492 0 0 1 0.004,0.0641 12.838492,12.838492 0 0 1 0.003,0.0636 12.838492,12.838492 0 0 1 0.003,0.0641 12.838492,12.838492 0 0 1 0.002,0.0641 12.838492,12.838492 0 0 1 0.002,0.0641 12.838492,12.838492 0 0 1 0.002,0.0641 12.838492,12.838492 0 0 1 0.002,0.0641 12.838492,12.838492 0 0 1 0.001,0.0636 12.838492,12.838492 0 0 1 5.2e-4,0.0641 12.838492,12.838492 0 0 1 5.1e-4,0.0641 12.838492,12.838492 0 0 1 5.2e-4,0.0641 12.838492,12.838492 0 0 1 -0.0584,0.37 l 0.0615,-5.2e-4 h 5.2e-4 a 41.732433,55.654198 0 0 1 -0.14315,0.51263 12.838492,12.838492 0 0 1 -0.48885,3.08509 12.838492,12.838492 0 0 1 -1.45056,2.84685 41.732433,55.654198 0 0 1 -1.96939,4.81004 41.732433,55.654198 0 0 1 -1.78077,3.17242 l 28.07529,-28.28561 c 0.18647,-0.18787 0.36095,-0.38281 0.524,-0.58395 0.16304,-0.20114 0.31464,-0.40847 0.45423,-0.62115 0.27917,-0.42535 0.51167,-0.87205 0.69712,-1.33273 0.18546,-0.46069 0.32369,-0.93522 0.41548,-1.41697 0.0918,-0.48175 0.13669,-0.97081 0.13487,-1.45934 -0.002,-0.48854 -0.0503,-0.97675 -0.14572,-1.4578 -0.0954,-0.48104 -0.23746,-0.95457 -0.42634,-1.41386 -0.18889,-0.45929 -0.42459,-0.90432 -0.70693,-1.32757 -0.14116,-0.21163 -0.29439,-0.41759 -0.45889,-0.61753 -0.16449,-0.19994 -0.34026,-0.39386 -0.52813,-0.58033 l -28.26391,-28.05307 a 41.732433,55.654198 0 0 1 1.15394,2.09496 41.732433,55.654198 0 0 1 1.16375,2.35438 41.732433,55.654198 0 0 1 1.07229,2.42983 41.732433,55.654198 0 0 1 0.16174,0.41289 12.838492,12.838492 0 0 1 0.0796,0.12248 12.838492,12.838492 0 0 1 0.61029,1.19734 12.838492,12.838492 0 0 1 0.48163,1.25419 12.838492,12.838492 0 0 1 0.34778,1.29811 12.838492,12.838492 0 0 1 0.0734,0.46405 41.732433,55.654198 0 0 1 0.0114,0.0331 h -0.006 a 12.838492,12.838492 0 0 1 0.13125,0.83044 12.838492,12.838492 0 0 1 0.0708,1.34203 12.838492,12.838492 0 0 1 -0.15813,2.00815 12.838492,12.838492 0 0 1 -0.47025,1.95905 12.838492,12.838492 0 0 1 -0.77102,1.86087 12.838492,12.838492 0 0 1 -1.05265,1.71773 12.838492,12.838492 0 0 1 -1.30896,1.5322 12.838492,12.838492 0 0 1 -1.53169,1.30845 12.838492,12.838492 0 0 1 -1.71772,1.05265 12.838492,12.838492 0 0 1 -1.86087,0.77101 12.838492,12.838492 0 0 1 -1.95906,0.47026 12.838492,12.838492 0 0 1 -2.00814,0.15813 12.838492,12.838492 0 0 1 -2.00866,-0.15813 12.838492,12.838492 0 0 1 -1.95906,-0.47026 12.838492,12.838492 0 0 1 -1.86138,-0.77101 12.838492,12.838492 0 0 1 -1.71721,-1.05265 12.838492,12.838492 0 0 1 -1.53221,-1.30845 12.838492,12.838492 0 0 1 -1.30844,-1.5322 12.838492,12.838492 0 0 1 -1.05265,-1.71773 12.838492,12.838492 0 0 1 -0.77102,-1.86087 12.838492,12.838492 0 0 1 -0.47025,-1.95905 12.838492,12.838492 0 0 1 -0.15761,-2.00815 12.838492,12.838492 0 0 1 0.15761,-2.00866 12.838492,12.838492 0 0 1 0.47025,-1.95905 12.838492,12.838492 0 0 1 0.77102,-1.86087 12.838492,12.838492 0 0 1 1.05265,-1.71773 12.838492,12.838492 0 0 1 1.30844,-1.5322 12.838492,12.838492 0 0 1 1.53221,-1.30845 12.838492,12.838492 0 0 1 1.71721,-1.05265 12.838492,12.838492 0 0 1 1.86138,-0.77101 12.838492,12.838492 0 0 1 0.92036,-0.14573 31.484051,41.670479 0 0 0 -1.28054,-1.33997 31.484051,41.670479 0 0 0 -1.50017,-1.39009 31.484051,41.670479 0 0 0 -1.55856,-1.2728 31.484051,41.670479 0 0 0 -1.61231,-1.15031 31.484051,41.670479 0 0 0 -1.65984,-1.02423 31.484051,41.670479 0 0 0 -1.70171,-0.89504 31.484051,41.670479 0 0 0 -1.73839,-0.76274 31.484051,41.670479 0 0 0 -1.7694,-0.62735 31.484051,41.670479 0 0 0 -1.79318,-0.48989 31.484051,41.670479 0 0 0 -1.81229,-0.3514 31.484051,41.670479 0 0 0 -1.824693,-0.21136 31.484051,41.670479 0 0 0 -1.830379,-0.0703 z"
         style="fill:#0000ff;fill-opacity:1;stroke:#000000;stroke-width:0.3;stroke-opacity:0.0688836"
         id="path18" /><path
         d="m 133.04873,135.2672 h 0.006 a 41.732433,55.654198 0 0 0 -0.0114,-0.0331 12.838492,12.838492 0 0 1 0.005,0.0331 h 5.2e-4 z"
         style="fill:#0000ff;stroke:#000000;stroke-width:0.3;stroke-opacity:0.0688836"
         id="path19" /><path
         d="m 133.95978,176.32877 -0.0615,5.2e-4 h -5.2e-4 a 12.838492,12.838492 0 0 1 -0.0811,0.51211 41.732433,55.654198 0 0 0 0.14314,-0.51263 z"
         style="fill:#0000ff;stroke:#000000;stroke-width:0.3;stroke-opacity:0.0688836"
         id="path20" /></g></g><g
     inkscape:groupmode="layer"
     id="layer3"
     inkscape:label="Pepsi"><g
       id="g26"
       transform="matrix(0.87354066,0,0,0.87354066,60.142485,-34.786103)"><path
         d="m 143.99638,189.08252 a 46.218575,46.218575 0 0 0 -1.495,-1.24592 46.218575,46.218575 0 0 0 -2.24844,-1.65468 46.218575,46.218575 0 0 0 -2.34456,-1.51567 46.218575,46.218575 0 0 0 -2.43189,-1.37149 46.218575,46.218575 0 0 0 -2.51045,-1.22215 46.218575,46.218575 0 0 0 -2.57917,-1.06867 46.218575,46.218575 0 0 0 -2.63911,-0.91054 46.218575,46.218575 0 0 0 -2.68924,-0.74982 46.218575,46.218575 0 0 0 -2.72955,-0.58602 46.218575,46.218575 0 0 0 -2.76056,-0.42013 46.218575,46.218575 0 0 0 -2.78019,-0.25269 46.218575,46.218575 0 0 0 -2.79053,-0.0842 46.218575,46.218575 0 0 0 -8.02586,0.70229 46.218575,46.218575 0 0 0 -7.781958,2.08514 46.218575,46.218575 0 0 0 -7.301363,3.40496 46.218575,46.218575 0 0 0 -6.599597,4.62091 46.218575,46.218575 0 0 0 -5.69681,5.69681 46.218575,46.218575 0 0 0 -4.620907,6.59908 46.218575,46.218575 0 0 0 -3.40496,7.30188 46.218575,46.218575 0 0 0 -2.085144,7.78195 46.218575,46.218575 0 0 0 -0.702282,8.02587 46.218575,46.218575 0 0 0 0.702282,8.02535 46.218575,46.218575 0 0 0 2.085144,7.78195 46.218575,46.218575 0 0 0 1.489832,3.19464 c 1.783906,-0.51771 3.534279,-1.06513 5.251359,-1.64124 1.724325,-0.57854 3.415537,-1.18627 5.074626,-1.8216 1.659089,-0.63533 3.285859,-1.2985 4.881872,-1.98851 1.596014,-0.69 3.161257,-1.40665 4.696354,-2.14922 1.535098,-0.74257 3.040178,-1.51071 4.516521,-2.30374 1.476342,-0.79302 2.923657,-1.61067 4.343401,-2.45204 1.41975,-0.84137 2.8117,-1.70656 4.17701,-2.59416 1.36531,-0.8876 2.70429,-1.79783 4.01732,-2.72955 1.31304,-0.93172 2.60042,-1.88501 3.86333,-2.85874 1.26292,-0.97373 2.50109,-1.9681 3.71606,-2.98173 1.21496,-1.01362 2.40684,-2.04659 3.57601,-3.098 1.16916,-1.05141 2.3156,-2.12099 3.44113,-3.20807 1.12553,-1.08709 2.22995,-2.19181 3.31401,-3.31246 1.08406,-1.12065 2.14783,-2.25751 3.19257,-3.40961 1.04474,-1.1521 2.07026,-2.31913 3.07785,-3.50057 1.00758,-1.18144 1.99725,-2.37715 2.96984,-3.58582 0.97259,-1.20867 1.92829,-2.43059 2.86804,-3.66438 0.93976,-1.23378 1.86337,-2.47941 2.77244,-3.7362 0.74192,-1.0257 1.46777,-2.06343 2.19057,-3.10317 z"
         style="fill:#c9002c;stroke:#000000;stroke-width:0"
         id="path25" /><path
         d="m 152.0517,197.9905 c 0.14812,1.69643 0.24248,3.32862 0.27234,4.88394 0.031,1.61456 5e-5,3.15506 -0.0904,4.62504 -0.0905,1.46998 -0.24061,2.86982 -0.44648,4.20284 -0.20588,1.33302 -0.46773,2.59919 -0.7829,3.80287 -0.15759,0.60184 -0.32834,1.18813 -0.51211,1.75907 -0.18378,0.57093 -0.38044,1.12661 -0.58963,1.6676 -0.2092,0.54098 -0.43122,1.06724 -0.66508,1.57923 -0.23385,0.51198 -0.47966,1.00951 -0.73742,1.49345 -0.51552,0.96787 -1.07809,1.88055 -1.68465,2.74195 -0.60656,0.8614 -1.25721,1.67193 -1.94872,2.43448 -0.69151,0.76254 -1.4238,1.47738 -2.19418,2.1487 -0.77038,0.67132 -1.57892,1.299 -2.42208,1.88671 -0.84316,0.58771 -1.72099,1.1352 -2.63084,1.64693 -0.90986,0.51172 -1.85159,0.98755 -2.82205,1.43092 -0.97046,0.44336 -1.96967,0.85451 -2.99465,1.23713 -1.02498,0.38262 -2.07575,0.73659 -3.14916,1.06608 -1.07342,0.3295 -2.16931,0.6343 -3.28507,0.91829 -1.11576,0.284 -2.2514,0.54763 -3.40341,0.79375 -1.15202,0.24613 -2.32044,0.47505 -3.50263,0.69092 -2.36439,0.43173 -4.78305,0.81041 -7.2316,1.16685 -2.44856,0.35644 -4.92741,0.69037 -7.41144,1.0325 -2.48403,0.34212 -4.973175,0.69229 -7.443987,1.08107 -2.470812,0.38878 -4.922954,0.81617 -7.331853,1.31258 -1.204449,0.24821 -2.398235,0.51392 -3.578076,0.80047 -1.179841,0.28654 -2.345731,0.59405 -3.494877,0.92656 -1.149145,0.3325 -2.281744,0.68981 -3.394108,1.0759 -1.112363,0.38609 -2.204724,0.80121 -3.274219,1.2485 -0.286178,0.11969 -0.556392,0.26161 -0.839225,0.38603 a 46.218575,46.218575 0 0 0 4.128947,5.89679 46.218575,46.218575 0 0 0 5.69681,5.69681 46.218575,46.218575 0 0 0 6.599597,4.62091 46.218575,46.218575 0 0 0 7.301363,3.40496 46.218575,46.218575 0 0 0 7.781958,2.08514 46.218575,46.218575 0 0 0 8.02586,0.70229 46.218575,46.218575 0 0 0 8.02587,-0.70229 46.218575,46.218575 0 0 0 7.78195,-2.08514 46.218575,46.218575 0 0 0 7.30137,-3.40496 46.218575,46.218575 0 0 0 6.59959,-4.62091 46.218575,46.218575 0 0 0 5.69681,-5.69681 46.218575,46.218575 0 0 0 4.62091,-6.59908 46.218575,46.218575 0 0 0 3.40444,-7.30188 46.218575,46.218575 0 0 0 2.08515,-7.78195 46.218575,46.218575 0 0 0 0.70228,-8.02535 46.218575,46.218575 0 0 0 -0.0842,-2.79105 46.218575,46.218575 0 0 0 -0.2527,-2.78019 46.218575,46.218575 0 0 0 -0.42013,-2.76004 46.218575,46.218575 0 0 0 -0.58601,-2.72954 46.218575,46.218575 0 0 0 -0.74983,-2.68976 46.218575,46.218575 0 0 0 -0.91053,-2.63912 46.218575,46.218575 0 0 0 -1.06816,-2.57917 46.218575,46.218575 0 0 0 -1.22214,-2.51044 46.218575,46.218575 0 0 0 -1.37201,-2.43138 46.218575,46.218575 0 0 0 -1.49862,-2.3182 z"
         style="fill:#2751b8;stroke:#000000;stroke-width:0"
         id="path26" /></g></g><g
     inkscape:groupmode="layer"
     id="layer4"
     inkscape:label="Volkswagen"><g
       id="g162"
       transform="matrix(0.81589012,0,0,0.81589012,-31.827731,30.425128)"><circle
         style="fill:url(#radialGradient160);fill-opacity:1;fill-rule:nonzero;stroke:#000000;stroke-width:0;stroke-dasharray:none;stroke-opacity:1"
         id="path158"
         cx="103.58687"
         cy="221.46352"
         r="48.544399" /><path
         id="path63"
         style="fill:url(#radialGradient135);stroke:#000000;stroke-width:0"
         d="m 104.23227,182.7866 a 38.895674,38.895674 0 0 0 -38.895716,38.89572 38.895674,38.895674 0 0 0 38.895716,38.89573 38.895674,38.895674 0 0 0 38.89572,-38.89573 38.895674,38.895674 0 0 0 -38.89572,-38.89572 z m -0.18356,6.97193 a 31.923806,31.923806 0 0 1 8.50134,1.23474 l -8.7469,19.58775 c -2.82311,-6.36179 -5.763676,-13.00161 -8.637756,-19.49598 a 31.923806,31.923806 0 0 1 8.883316,-1.32651 z m 16.57059,4.75245 a 31.923806,31.923806 0 0 1 8.55095,7.58061 l -14.60958,32.71505 c 0,0 -2.96134,-6.6624 -5.61514,-12.63419 l -0.67616,-0.006 v 4.9e-4 l -9.335246,-0.0754 -0.27036,-0.002 -5.81903,13.03006 c 0,0 -3.27049,-7.34987 -7.72943,-17.39111 -2.00291,-4.5104 -4.36816,-9.85528 -6.67527,-15.06598 a 31.923806,31.923806 0 0 1 8.46562,-7.80037 c 0.16054,0.36614 0.24902,0.5725 0.42316,0.96885 v 4.8e-4 c 3.01396,6.86007 7.0088,15.89167 10.99513,24.88541 l 0.95446,-0.005 8.996426,-0.0486 0.66723,-0.004 z m 13.8109,17.38913 a 31.923806,31.923806 0 0 1 1.54231,9.78221 31.923806,31.923806 0 0 1 -18.88133,29.04505 z m -61.147426,1.60432 c 1.09936,2.49043 2.1531,4.88253 3.37782,7.6456 6.44513,14.54075 10.70036,24.09551 12.86436,28.95773 a 31.923806,31.923806 0 0 1 -17.40003,-28.42544 31.923806,31.923806 0 0 1 1.15785,-8.17789 z M 103.60621,232.609 c 3.92725,8.84066 7.25718,16.33516 8.79552,19.7976 a 31.923806,31.923806 0 0 1 -8.35302,1.19952 31.923806,31.923806 0 0 1 -9.193356,-1.40143 z" /><g
         id="g155"
         style="fill:url(#radialGradient157);fill-opacity:1;stroke:#000000;stroke-width:0.3;stroke-dasharray:none;stroke-opacity:0.544586"><path
           id="path63-3"
           style="fill:url(#radialGradient162);fill-opacity:1;stroke:#000000;stroke-width:0.3;stroke-dasharray:none;stroke-opacity:0.544586"
           d="m 103.93052,180.86734 a 40.517376,40.517376 0 0 0 -40.517428,40.51742 40.517376,40.517376 0 0 0 40.517428,40.51742 40.517376,40.517376 0 0 0 40.51742,-40.51742 40.517376,40.517376 0 0 0 -40.51742,-40.51742 z m -0.19121,7.2626 a 33.254826,33.254826 0 0 1 8.85579,1.28675 l -9.11158,20.40392 c -2.94078,-6.62692 -6.004058,-13.54333 -8.997898,-20.30832 a 33.254826,33.254826 0 0 1 9.253688,-1.38235 z m 17.26148,4.95112 a 33.254826,33.254826 0 0 1 8.90747,7.89667 l -15.21871,34.07854 c 0,0 -3.08481,-6.94018 -5.84926,-13.16095 l -0.70435,-0.006 -9.724468,-0.0786 -0.28163,-0.002 -6.06165,13.57333 c 0,0 -3.40685,-7.65631 -8.0517,-18.11621 -2.08648,-4.69858 -4.55021,-10.26654 -6.95358,-15.69465 a 33.254826,33.254826 0 0 1 8.81858,-8.12559 c 0.16723,0.38141 0.2594,0.59637 0.4408,1.00924 v 5.1e-4 c 3.13963,7.14608 7.30102,16.55424 11.45356,25.92296 l 0.99426,-0.005 v -5.1e-4 l 9.371518,-0.0501 c -1e-4,-2.2e-4 10e-5,-3e-4 0,-5.2e-4 l 0.69505,-0.004 z m 14.38672,18.11414 a 33.254826,33.254826 0 0 1 1.60662,10.18956 33.254826,33.254826 0 0 1 -19.66805,30.25603 z m -63.696888,1.67121 c 1.1452,2.59428 2.24287,5.0861 3.51865,7.96438 6.71385,15.147 11.1465,25.10014 13.40073,30.16508 a 33.254826,33.254826 0 0 1 -18.1255,-29.61111 33.254826,33.254826 0 0 1 1.20612,-8.51835 z m 31.587738,19.90112 c 4.09099,9.20925 7.55976,17.01623 9.16223,20.62303 a 33.254826,33.254826 0 0 1 -8.70128,1.24902 33.254826,33.254826 0 0 1 -9.576668,-1.45935 z" /><path
           id="path69"
           style="fill:url(#radialGradient163);fill-opacity:1;fill-rule:nonzero;stroke:#000000;stroke-width:0.3;stroke-dasharray:none;stroke-opacity:0.544586"
           d="m 103.13922,171.80552 a 50.002552,50.002552 0 0 0 -50.002627,50.00264 50.002552,50.002552 0 0 0 50.002627,50.00263 50.002552,50.002552 0 0 0 50.00212,-50.00263 50.002552,50.002552 0 0 0 -50.00212,-50.00264 z m 0.27027,1.89239 a 47.840275,47.840275 0 0 1 47.83998,47.83998 47.840275,47.840275 0 0 1 -47.83998,47.84049 47.840275,47.840275 0 0 1 -47.840487,-47.84049 47.840275,47.840275 0 0 1 47.840487,-47.83998 z" /></g></g></g><g
     inkscape:groupmode="layer"
     id="layer5"
     inkscape:label="PlayStation"><g
       id="g169"
       transform="matrix(1.4904279,0,0,1.4904279,10.57491,-69.229155)"><g
         id="g167"><g
           id="g166"
           transform="translate(-0.01467283,-0.09354433)"><path
             style="fill:#326db3;fill-opacity:1;fill-rule:nonzero;stroke:#000000;stroke-width:0;stroke-dasharray:none;stroke-opacity:1"
             d="m 88.13301,221.57201 -0.04281,2.61689 -4.002311,-1.22235 z"
             id="path163-5-8"
             sodipodi:nodetypes="cccc" /><g
             id="g165"
             transform="translate(4.5836724,-19.64431)"><path
               style="fill:#00aa9e;fill-opacity:1;fill-rule:nonzero;stroke:#000000;stroke-width:0;stroke-dasharray:none;stroke-opacity:1"
               d="m 79.488173,242.6086 4.027316,1.21913 0.0048,2.97723 -10.122916,3.71282 -8.854082,-2.88408 z"
               id="path163"
               sodipodi:nodetypes="cccccc" /><path
               style="fill:#00aa9e;fill-opacity:1;fill-rule:nonzero;stroke:#000000;stroke-width:0;stroke-dasharray:none;stroke-opacity:1"
               d="m 83.514007,250.64653 0.0068,3.09645 -4.680305,-1.53654 z"
               id="path163-5"
               sodipodi:nodetypes="cccc" /><path
               style="fill:#00aa9e;fill-opacity:1;fill-rule:nonzero;stroke:#000000;stroke-width:0;stroke-dasharray:none;stroke-opacity:1"
               d="m 93.848185,247.13255 9.041475,2.90427 -9.044233,3.10023 z"
               id="path163-9"
               sodipodi:nodetypes="cccc" /><path
               style="fill:#00aa9e;fill-opacity:1;fill-rule:nonzero;stroke:#000000;stroke-width:0;stroke-dasharray:none;stroke-opacity:1"
               d="m 108.17945,251.69 4.31804,1.2111 5.3212,1.65549 -14.77468,5.32835 -9.184532,-2.92702 -0.0053,-0.52111 z"
               id="path163-1"
               sodipodi:nodetypes="ccccccc" /><path
               style="fill:#f4c202;fill-opacity:1;fill-rule:nonzero;stroke:#000000;stroke-width:0;stroke-dasharray:none;stroke-opacity:1"
               d="m 93.85953,256.95742 9.1874,2.92706 -9.161451,3.25084 z"
               id="path164"
               sodipodi:nodetypes="cccc" /><path
               style="fill:#f4c202;fill-opacity:1;fill-rule:nonzero;stroke:#000000;stroke-width:0;stroke-dasharray:none;stroke-opacity:1"
               d="m 83.514754,253.74367 v 2.80419 c 0,0 -3.085134,1.45372 -8.578373,1.58412 -1.452294,0.0345 -3.745297,0.0625 -5.601191,-0.14725 -1.52127,-0.17193 -3.126608,-0.54948 -4.502408,-0.90704 -1.531175,-0.39795 -3.999435,-1.10219 -5.130198,-2.66202 -0.389717,-0.53759 -0.386547,-1.39102 -0.32202,-1.96578 0.371985,-3.31338 5.161774,-4.81249 5.161774,-4.81249 l 8.853657,2.87975 c 0,0 -4.157801,0.87737 -3.648835,2.22984 0.471323,1.25245 1.998931,1.73302 4.103684,1.09137 2.356957,-0.71854 4.984617,-1.63193 4.984617,-1.63193 z"
               id="path165"
               sodipodi:nodetypes="ccsasasccsscc" /></g></g><path
           style="fill:#326db3;fill-opacity:1;fill-rule:nonzero;stroke:#000000;stroke-width:0;stroke-dasharray:none;stroke-opacity:1"
           d="m 98.433201,227.40108 9.040719,2.91074 5.47,-1.92049 c 0,0 3.10254,-0.54414 4.62193,-0.17339 0.36634,0.0894 0.84055,0.1845 0.98221,0.52819 0.11399,0.27653 -0.0704,0.62558 -0.26125,0.85843 -0.2939,0.35848 -1.17214,0.74836 -1.17214,0.74836 l -4.35833,1.59593 9.64593,2.87198 c 0,0 2.17188,-0.7587 3.28208,-1.53213 0.68868,-0.47978 1.17621,-0.76128 1.77216,-1.54583 0.27218,-0.35832 0.50502,-1.08458 0.49276,-1.65688 -0.01,-0.46891 -0.31545,-1.06743 -0.54756,-1.47499 -0.26391,-0.4634 -0.62468,-0.70134 -1.01529,-1.06441 -0.37056,-0.34444 -0.80203,-0.61458 -1.21324,-0.8419 -0.71709,-0.39641 -1.4248,-0.65171 -2.20915,-0.88867 -0.90167,-0.2724 -1.83377,-0.43451 -2.75956,-0.60804 -1.10098,-0.20637 -2.20811,-0.38569 -3.32083,-0.51449 -1.21158,-0.14024 -2.47818,-0.22428 -3.69783,-0.23103 -1.18744,-0.007 -2.32356,0.0657 -3.50508,0.18426 -1.15838,0.11624 -2.26713,0.30356 -3.41153,0.51733 -1.11888,0.209 -3.37043,0.74552 -3.37043,0.74552 z"
           id="path166"
           sodipodi:nodetypes="cccsascccsssssssssssscc" /></g><path
         style="fill:#ff0000;fill-opacity:1;fill-rule:nonzero;stroke:#000000;stroke-width:0;stroke-dasharray:none;stroke-opacity:1"
         d="m 88.089712,239.94401 10.351823,3.43958 0.01654,-38.95989 c 0,0 0.199832,-0.4304 0.363802,-0.59532 0.191976,-0.19309 0.43815,-0.33827 0.694531,-0.42995 0.314171,-0.11235 0.659712,-0.16035 0.992182,-0.13229 0.33356,0.0281 0.65777,0.15191 0.95912,0.29766 0.22848,0.1105 0.45992,0.24012 0.62838,0.42995 0.18983,0.21391 0.39688,0.76067 0.39688,0.76067 l -0.0992,18.02474 c 0,0 1.81891,0.44119 2.74505,0.56224 0.75553,0.0987 1.52156,0.17976 2.28203,0.1323 0.72727,-0.0454 1.46048,-0.16044 2.14974,-0.39688 0.6343,-0.21759 1.24927,-0.52397 1.78594,-0.92604 0.56162,-0.42076 1.03969,-0.95584 1.45521,-1.52136 0.4324,-0.58849 0.7831,-1.2418 1.05833,-1.91822 0.29736,-0.73081 0.4834,-1.50648 0.62839,-2.28204 0.16086,-0.86047 0.26458,-2.61276 0.26458,-2.61276 0,0 0.0519,-1.61122 0,-2.41432 -0.0552,-0.85421 -0.13136,-1.71415 -0.33073,-2.54661 -0.16892,-0.70532 -0.43927,-1.39981 -0.7276,-2.05052 -0.27269,-0.61541 -0.53726,-1.17032 -0.92605,-1.7198 -0.38486,-0.54392 -0.72069,-1.00659 -1.25677,-1.55442 -0.63903,-0.65305 -1.53367,-1.49325 -2.28203,-2.01745 -0.73937,-0.5179 -1.57566,-0.88253 -2.38125,-1.28985 -0.92422,-0.4673 -2.8112,-1.32291 -2.8112,-1.32291 l -15.941138,-4.33255 z"
         id="path167"
         sodipodi:nodetypes="cccsssssccssssssscsssssssccc" /></g></g></svg>
